<svg width="1349" height="1012" viewBox="0 0 1349 1012" fill="none" xmlns="http://www.w3.org/2000/svg">
<g clip-path="url(#clip0)">
<path d="M1349 0H0V1011.75H1349V0Z" fill="#CDCDCE"/>
<path opacity="0.15" d="M997.417 914.791C1092.41 914.791 1169.41 913.281 1169.41 911.418C1169.41 909.556 1092.41 908.046 997.417 908.046C902.425 908.046 825.419 909.556 825.419 911.418C825.419 913.281 902.425 914.791 997.417 914.791Z" fill="#F3525A"/>
<path d="M363.117 542.854L356.473 526.548C345.768 525.847 335.715 521.155 328.302 513.401C320.889 505.646 316.654 495.392 316.435 484.666C316.217 473.94 320.029 463.522 327.12 455.472C334.211 447.421 344.064 442.323 354.732 441.186C365.4 440.049 376.106 442.955 384.735 449.33C393.364 455.705 399.287 465.085 401.334 475.616C403.382 486.147 401.404 497.062 395.792 506.206C390.18 515.349 381.342 522.055 371.026 524.997L363.117 542.854ZM359.171 442.624C348.474 442.673 338.217 446.884 330.572 454.366C322.926 461.848 318.494 472.012 318.213 482.705C317.933 493.398 321.826 503.781 329.068 511.653C336.311 519.525 346.333 524.269 357.013 524.879H357.552L363.1 538.504L369.71 523.53L370.098 523.429C379.668 520.756 387.948 514.712 393.41 506.411C398.872 498.111 401.147 488.115 399.815 478.269C398.484 468.423 393.636 459.39 386.165 452.839C378.695 446.287 369.107 442.659 359.171 442.624Z" fill="#F3525A"/>
<path opacity="0.6" d="M374.044 476.399V466.518H364.23C364.278 465.513 364.121 464.508 363.77 463.565C363.418 462.622 362.879 461.761 362.184 461.032C361.49 460.304 360.655 459.724 359.729 459.328C358.804 458.932 357.808 458.728 356.802 458.728C355.796 458.728 354.8 458.932 353.875 459.328C352.95 459.724 352.115 460.304 351.42 461.032C350.726 461.761 350.186 462.622 349.835 463.565C349.483 464.508 349.326 465.513 349.374 466.518H339.493V501.153H349.374C349.326 500.148 349.483 499.144 349.835 498.201C350.186 497.258 350.726 496.396 351.42 495.668C352.115 494.939 352.95 494.36 353.875 493.963C354.8 493.567 355.796 493.363 356.802 493.363C357.808 493.363 358.804 493.567 359.729 493.963C360.655 494.36 361.49 494.939 362.184 495.668C362.879 496.396 363.418 497.258 363.77 498.201C364.121 499.144 364.278 500.148 364.23 501.153H374.111V491.272C375.117 491.32 376.121 491.163 377.064 490.812C378.007 490.46 378.869 489.921 379.597 489.226C380.325 488.532 380.905 487.697 381.301 486.771C381.698 485.846 381.902 484.85 381.902 483.844C381.902 482.838 381.698 481.842 381.301 480.917C380.905 479.992 380.325 479.157 379.597 478.462C378.869 477.768 378.007 477.228 377.064 476.877C376.121 476.525 375.117 476.368 374.111 476.416L374.044 476.399Z" fill="#F3525A"/>
<path d="M1012.09 525.048L1012.91 507.46C1005.58 503.461 999.568 497.404 995.628 490.034C991.689 482.665 989.991 474.304 990.743 465.981C991.495 457.659 994.664 449.737 999.86 443.193C1005.06 436.648 1012.05 431.766 1019.99 429.147C1027.92 426.528 1036.45 426.287 1044.52 428.453C1052.59 430.619 1059.86 435.098 1065.41 441.338C1070.97 447.579 1074.58 455.308 1075.8 463.575C1077.03 471.842 1075.8 480.285 1072.29 487.866V487.866C1068.36 496.306 1061.8 503.24 1053.58 507.624C1045.37 512.007 1035.96 513.6 1026.76 512.165L1012.09 525.048ZM1033.45 428.662C1024.26 428.662 1015.33 431.738 1008.09 437.401C1000.84 443.064 995.706 450.988 993.489 459.91C991.272 468.832 992.104 478.24 995.854 486.634C999.603 495.028 1006.05 501.926 1014.18 506.229L1014.65 506.482L1013.96 521.169L1026.25 510.377H1026.64C1035.52 511.854 1044.64 510.384 1052.61 506.191C1060.58 501.999 1066.96 495.314 1070.77 487.158C1073.67 480.886 1074.95 473.985 1074.48 467.09C1074.02 460.195 1071.83 453.527 1068.11 447.701C1064.4 441.875 1059.27 437.078 1053.22 433.75C1047.16 430.423 1040.36 428.673 1033.45 428.662Z" fill="#F3525A"/>
<path opacity="0.6" d="M1051.65 462.201C1051.03 462.209 1050.42 462.294 1049.83 462.454V452.337H1039.94C1039.99 453.342 1039.84 454.346 1039.48 455.289C1039.13 456.232 1038.59 457.094 1037.9 457.822C1037.2 458.551 1036.37 459.13 1035.44 459.526C1034.52 459.923 1033.52 460.127 1032.52 460.127C1031.51 460.127 1030.51 459.923 1029.59 459.526C1028.66 459.13 1027.83 458.551 1027.13 457.822C1026.44 457.094 1025.9 456.232 1025.55 455.289C1025.2 454.346 1025.04 453.342 1025.09 452.337H1015.12V462.218C1014.12 462.17 1013.11 462.327 1012.17 462.678C1011.23 463.03 1010.37 463.569 1009.64 464.264C1008.91 464.958 1008.33 465.793 1007.93 466.719C1007.54 467.644 1007.33 468.64 1007.33 469.646C1007.33 470.652 1007.54 471.648 1007.93 472.573C1008.33 473.498 1008.91 474.333 1009.64 475.028C1010.37 475.722 1011.23 476.262 1012.17 476.613C1013.11 476.965 1014.12 477.122 1015.12 477.074V486.955H1025.24C1025.19 485.95 1025.35 484.946 1025.7 484.003C1026.05 483.06 1026.59 482.198 1027.29 481.47C1027.98 480.741 1028.82 480.161 1029.74 479.765C1030.67 479.369 1031.66 479.165 1032.67 479.165C1033.67 479.165 1034.67 479.369 1035.6 479.765C1036.52 480.161 1037.36 480.741 1038.05 481.47C1038.74 482.198 1039.28 483.06 1039.64 484.003C1039.99 484.946 1040.14 485.95 1040.1 486.955H1049.77V476.838C1050.8 477.102 1051.86 477.145 1052.9 476.964C1053.94 476.784 1054.93 476.384 1055.8 475.791C1056.67 475.198 1057.41 474.426 1057.96 473.526C1058.51 472.626 1058.86 471.619 1058.99 470.572C1059.12 469.526 1059.03 468.463 1058.72 467.456C1058.4 466.448 1057.88 465.519 1057.18 464.73C1056.48 463.941 1055.62 463.31 1054.66 462.88C1053.69 462.45 1052.65 462.23 1051.6 462.235L1051.65 462.201Z" fill="#F3525A"/>
<path d="M585.753 527.105C575.628 527.107 565.831 523.522 558.098 516.987C551.712 511.599 547.04 504.461 544.659 496.451C542.278 488.442 542.29 479.911 544.695 471.908C547.099 463.906 551.792 456.781 558.193 451.411C564.595 446.042 572.428 442.661 580.727 441.685C589.025 440.709 597.428 442.181 604.901 445.92C612.374 449.659 618.591 455.501 622.786 462.728C626.981 469.954 628.971 478.249 628.513 486.593C628.054 494.936 625.165 502.963 620.203 509.686L628.381 525.284L609.63 519.803C602.576 524.561 594.261 527.104 585.753 527.105ZM559.194 515.74C566.088 521.534 574.689 524.913 583.683 525.361C592.677 525.808 601.571 523.3 609.006 518.218L609.343 517.999L625.042 522.603L618.213 509.568L618.533 509.146C623.395 502.73 626.268 495.03 626.798 486.998C627.328 478.965 625.492 470.954 621.515 463.955C617.539 456.956 611.598 451.276 604.427 447.619C597.256 443.962 589.17 442.488 581.169 443.379C573.169 444.27 565.606 447.488 559.415 452.633C553.225 457.779 548.679 464.626 546.34 472.329C544.002 480.032 543.973 488.251 546.258 495.969C548.542 503.688 553.04 510.568 559.194 515.756V515.74Z" fill="#F3525A"/>
<path opacity="0.6" d="M569.008 478.086V468.204H578.89C578.842 467.199 578.998 466.194 579.35 465.252C579.702 464.309 580.241 463.447 580.936 462.719C581.63 461.99 582.465 461.41 583.39 461.014C584.315 460.618 585.311 460.414 586.318 460.414C587.324 460.414 588.32 460.618 589.245 461.014C590.17 461.41 591.005 461.99 591.7 462.719C592.394 463.447 592.933 464.309 593.285 465.252C593.637 466.194 593.793 467.199 593.745 468.204H603.677V478.086C601.769 478.177 599.968 478.999 598.65 480.382C597.331 481.765 596.595 483.603 596.595 485.514C596.595 487.424 597.331 489.262 598.65 490.645C599.968 492.028 601.769 492.85 603.677 492.941V502.823H593.796C593.844 501.818 593.687 500.813 593.336 499.87C592.984 498.927 592.445 498.066 591.75 497.337C591.056 496.609 590.221 496.029 589.295 495.633C588.37 495.237 587.374 495.033 586.368 495.033C585.362 495.033 584.366 495.237 583.441 495.633C582.516 496.029 581.681 496.609 580.986 497.337C580.292 498.066 579.752 498.927 579.401 499.87C579.049 500.813 578.892 501.818 578.94 502.823H569.059V492.941C567.15 492.85 565.35 492.028 564.031 490.645C562.712 489.262 561.976 487.424 561.976 485.514C561.976 483.603 562.712 481.765 564.031 480.382C565.35 478.999 567.15 478.177 569.059 478.086H569.008Z" fill="#F3525A"/>
<path d="M807.899 680.925H744.243V688.513H807.899V680.925Z" fill="#CDCDCE"/>
<path opacity="0.3" d="M807.899 680.925H744.243V688.513H807.899V680.925Z" fill="#F3525A"/>
<path d="M351.381 560.948C351.381 560.948 351.819 551.623 340.285 550.746C328.751 549.869 322.074 573.814 334.518 577.372C346.963 580.93 352.275 562.735 352.275 562.735" fill="#000D44"/>
<path d="M351.398 564.455C351.398 564.455 351.617 559.987 346.086 559.565C340.555 559.144 337.368 570.627 343.321 572.33C349.273 574.033 351.752 565.315 351.752 565.315" fill="#CDCDCE"/>
<path opacity="0.7" d="M439.201 785.961H397.044V792.706C395.077 792.08 393.275 791.023 391.77 789.611C390.264 788.199 389.094 786.468 388.343 784.545L351.887 691.076C349.791 685.696 346.12 681.075 341.354 677.816C336.589 674.558 330.95 672.814 325.176 672.814H284.234C282.128 672.815 280.054 673.33 278.192 674.314C276.33 675.298 274.736 676.722 273.549 678.461C272.361 680.2 271.615 682.203 271.376 684.295C271.138 686.387 271.413 688.507 272.178 690.469L308.887 784.595C309.899 787.193 311.672 789.425 313.974 790.999C316.276 792.572 318.999 793.414 321.787 793.414H370.537V914.335H331.18V920.473H418.628V914.335H379.271V793.431H439.201C439.976 793.431 440.617 791.745 440.617 789.688C440.617 787.63 439.976 785.961 439.201 785.961Z" fill="#CDCDCE"/>
<path opacity="0.3" d="M439.201 785.961H397.044V792.706C395.077 792.08 393.275 791.023 391.77 789.611C390.264 788.199 389.094 786.468 388.343 784.545L351.887 691.076C349.791 685.696 346.12 681.075 341.354 677.816C336.589 674.558 330.95 672.814 325.176 672.814H284.234C282.128 672.815 280.054 673.33 278.192 674.314C276.33 675.298 274.736 676.722 273.549 678.461C272.361 680.2 271.615 682.203 271.376 684.295C271.138 686.387 271.413 688.507 272.178 690.469L308.887 784.595C309.899 787.193 311.672 789.425 313.974 790.999C316.276 792.572 318.999 793.414 321.787 793.414H370.537V914.335H331.18V920.473H418.628V914.335H379.271V793.431H439.201C439.976 793.431 440.617 791.745 440.617 789.688C440.617 787.63 439.976 785.961 439.201 785.961Z" fill="#F3525A"/>
<path d="M362.645 643.81C362.645 643.81 365.124 669.863 389.321 693.437C412.271 712.66 467.479 653.725 467.479 653.725C467.568 651.641 466.951 649.587 465.726 647.898C464.502 646.208 462.743 644.982 460.734 644.417C460.734 644.417 421.023 665.512 412.963 667.367C404.902 669.222 393.739 638.836 383.807 631.956C373.875 625.076 362.021 627.69 362.645 643.81Z" fill="#F3525A"/>
<path opacity="0.07" d="M362.645 643.81C362.645 643.81 365.124 669.863 389.321 693.437C412.271 712.66 467.479 653.725 467.479 653.725C467.568 651.641 466.951 649.587 465.726 647.898C464.502 646.208 462.743 644.982 460.734 644.417C460.734 644.417 421.023 665.512 412.963 667.367C404.902 669.222 393.739 638.836 383.807 631.956C373.875 625.076 362.021 627.69 362.645 643.81Z" fill="#000D44"/>
<path d="M471.745 846.734C471.745 846.734 473.432 852.332 475.657 854.625C477.883 856.919 487.832 865.788 491.373 866.227C494.914 866.665 497.848 869.009 498.59 868.739C499.332 868.469 498.068 868.638 493.886 869.565C489.704 870.493 488.574 872.854 482.605 871.859C476.635 870.864 475.135 867.458 472.774 866.328C470.413 865.198 465.203 865.62 463.263 864.911C461.324 864.203 462.033 857.458 462.033 857.458L457.665 848.302L471.745 846.734Z" fill="#F5B58F"/>
<path d="M482.74 880.543C480.972 881.168 479.084 881.378 477.222 881.159C475.36 880.94 473.573 880.296 471.998 879.278L473.583 883.78L468.525 885.551C467.142 882.027 461.24 866.884 461.78 865.687C462.319 864.49 466.299 864.524 468.828 865.046C469.313 865.147 469.792 865.276 470.261 865.434C472.452 866.154 474.801 866.247 477.042 865.701C479.283 865.156 481.327 863.994 482.942 862.348C483.336 861.938 483.791 861.591 484.291 861.32C499.467 867.34 500.041 865.67 506.111 867.744C509.787 868.992 510.681 869.987 510.833 870.577L482.74 880.543Z" fill="#000D44"/>
<path d="M416.15 879.177C416.15 879.177 418.797 894.033 419.337 896.427C419.876 898.822 429.994 915.246 429.994 915.246H406.083C405.191 908.026 404.662 900.766 404.498 893.493C404.228 881.555 403.975 872.533 403.975 872.533L416.15 879.177Z" fill="#F5B58F"/>
<path d="M407.449 919.765C407.2 919.166 407.008 918.545 406.875 917.91L406.622 919.765H403.014L404.481 895.095L405.796 906.697C405.85 907.172 406.024 907.626 406.3 908.017C406.576 908.408 406.947 908.723 407.377 908.933C407.807 909.143 408.283 909.242 408.761 909.219C409.24 909.197 409.704 909.054 410.113 908.804C412.572 907.304 415.236 906.168 418.021 905.432C425.188 903.577 429.69 911.806 429.69 911.806C431.602 914.143 433.003 916.854 433.805 919.765H407.449Z" fill="#000D44"/>
<path d="M390.485 721.074C390.485 721.074 389.557 723.199 391.412 714.852C393.267 706.505 397.449 683.758 398.832 668.919C400.215 654.08 384.903 633.659 384.903 633.659C384.903 633.659 376.472 625.228 370.048 623.457C363.623 621.687 344.99 621.602 344.99 621.602C344.99 621.602 318.549 621.13 312.951 638.313C306.611 648.515 321.382 675.866 322.226 679.609C328.229 708.967 332.343 720.619 332.883 721.277C332.883 721.277 354.433 731.293 371.144 729.893C387.854 728.494 390.485 721.074 390.485 721.074Z" fill="#F3525A"/>
<path d="M368.058 600.406C368.058 600.406 363.657 617.572 372.004 625.464C370.604 628.718 365.512 633.592 356.692 631.265C347.873 628.937 345.091 625.009 344.164 622.833C344.4 619.36 348.109 607.758 346.946 595.853L368.058 600.406Z" fill="#EFAB89"/>
<path d="M380.536 577.321C381.719 585.182 382.16 593.137 381.851 601.081C381.73 603.414 381.043 605.683 379.849 607.692C378.656 609.7 376.991 611.388 374.999 612.61C373.007 613.832 370.748 614.55 368.417 614.704C366.085 614.857 363.751 614.441 361.616 613.491C357.217 611.628 353.237 608.898 349.914 605.465C341.482 596.325 339.004 580.846 342.882 571.352C346.76 561.858 364.685 561.504 370.317 563.612C375.949 565.72 380.182 573.46 380.536 577.321Z" fill="#F5B58F"/>
<path d="M348.059 595.55C348.059 595.55 341.314 588.265 338.666 593.729C336.019 599.192 349.88 607.067 350.184 603.121C350.233 600.444 349.494 597.811 348.059 595.55V595.55Z" fill="#F5B58F"/>
<path d="M345.782 604.959C346.798 604.959 347.62 604.136 347.62 603.121C347.62 602.106 346.798 601.283 345.782 601.283C344.767 601.283 343.944 602.106 343.944 603.121C343.944 604.136 344.767 604.959 345.782 604.959Z" fill="#F5B58F"/>
<path d="M391.412 714.852C391.412 714.852 344.079 719.422 331.635 716.252C326.576 720.535 326.576 769.335 334.906 779.25C343.236 789.165 388.664 785.86 391.986 789.182C395.308 792.504 401.918 872.921 401.918 877.879C404.396 882.836 413.502 882.01 419.286 881.251C425.07 880.492 427.481 781.627 427.481 781.627C427.481 781.627 450.718 846.514 454.023 850.646C457.328 854.777 473.87 850.646 473.044 843.209C470.261 834.778 462.201 774.798 454.293 752.287C453.218 749.208 451.395 746.445 448.987 744.246C446.579 742.047 443.662 740.482 440.499 739.69C428.83 736.807 411.108 734.632 401.985 733.62C400.204 733.421 398.51 732.741 397.084 731.654C395.659 730.567 394.555 729.113 393.891 727.448L393.25 725.762C392.957 725.025 392.753 724.255 392.643 723.469L391.412 714.852Z" fill="#1B255E"/>
<path d="M311.349 645.48C311.349 645.48 313.828 671.532 338.026 695.106C360.976 714.329 416.183 655.395 416.183 655.395C416.273 653.31 415.655 651.257 414.431 649.567C413.206 647.877 411.447 646.651 409.438 646.087C409.438 646.087 369.727 667.182 361.667 669.037C353.607 670.891 342.444 640.505 332.512 633.625C322.58 626.745 310.742 629.342 311.349 645.48Z" fill="#F3525A"/>
<path opacity="0.07" d="M311.349 645.48C311.349 645.48 313.828 671.532 338.026 695.106C360.976 714.329 416.183 655.395 416.183 655.395C416.273 653.31 415.655 651.257 414.431 649.567C413.206 647.877 411.447 646.651 409.438 646.087C409.438 646.087 369.727 667.182 361.667 669.037C353.607 670.891 342.444 640.505 332.512 633.625C322.58 626.745 310.742 629.342 311.349 645.48Z" fill="#000D44"/>
<path d="M409.371 646.087C409.371 646.087 414.328 634.283 416.504 632.748C418.679 631.214 427.043 630.27 430.146 631.501C433.248 632.732 438.83 636.155 437.902 637.402C436.975 638.65 434.53 636.475 432.017 637.402C429.505 638.33 426.132 646.39 424.261 649.813C422.389 653.236 416.2 655.395 416.2 655.395L409.371 646.087Z" fill="#F5B58F"/>
<path opacity="0.2" d="M504.494 604.29L464.433 608.84L471.293 669.241L511.354 664.691L504.494 604.29Z" fill="#F3525A"/>
<path d="M459.402 645.665C462.496 642.972 464.627 639.343 465.472 635.328C467.159 628.297 470.025 622.934 472.083 624.587C474.14 626.24 471.256 632.445 471.256 636.155C471.256 639.864 472.943 649.375 470.43 651.854C469.667 652.588 468.757 653.152 467.76 653.51C466.763 653.867 465.702 654.01 464.646 653.928L459.402 645.665Z" fill="#F5B58F"/>
<path d="M342.309 569.666C342.309 569.666 351.482 573.224 352.072 576.411C352.339 578.187 352.122 580.003 351.446 581.667C350.769 583.332 349.658 584.784 348.227 585.871C345.277 587.945 346.457 596.224 346.457 596.224C345.95 595.783 345.342 595.476 344.686 595.331C343.506 595.027 342.022 591.486 342.022 591.486L339.948 592.076C338.341 589.948 337.218 587.496 336.656 584.889C336.094 582.283 336.107 579.585 336.694 576.984C338.447 569.851 342.309 569.666 342.309 569.666Z" fill="#000D44"/>
<path d="M340.875 570.863C340.875 570.863 339.695 561.69 350.335 558.149C360.976 554.608 374.6 557.845 379.625 567.912C384.364 577.676 382.88 579.716 380.519 579.716C378.158 579.716 373.117 575.568 367.215 576.461C361.313 577.355 355.681 582.97 350.352 580.306C345.024 577.642 340.875 570.863 340.875 570.863Z" fill="#000D44"/>
<path d="M989.137 618.247C986.625 618.195 984.136 618.726 981.863 619.796C979.59 620.867 977.595 622.449 976.035 624.418C972.192 629.172 969.327 634.64 967.604 640.505C963.388 654.754 956.525 672.173 956.525 672.173C956.525 672.173 913.762 675.866 886.31 684.314C886.31 684.314 887.895 690.654 890.525 699.102C890.525 699.102 959.662 700.165 971.82 697.517C984.483 694.347 1000.86 642.09 1000.86 642.09C1000.86 642.09 1005.36 618.854 989.137 618.247Z" fill="#F3525A"/>
<path opacity="0.13" d="M989.137 618.247C986.625 618.195 984.136 618.726 981.863 619.796C979.59 620.867 977.595 622.449 976.035 624.418C972.192 629.172 969.327 634.64 967.604 640.505C963.388 654.754 956.525 672.173 956.525 672.173C956.525 672.173 913.762 675.866 886.31 684.314C886.31 684.314 887.895 690.654 890.525 699.102C890.525 699.102 959.662 700.165 971.82 697.517C984.483 694.347 1000.86 642.09 1000.86 642.09C1000.86 642.09 1005.36 618.854 989.137 618.247Z" fill="#000D44"/>
<path d="M1078.76 671.127H1037.82C1032.03 671.117 1026.37 672.859 1021.59 676.125C1016.81 679.39 1013.14 684.027 1011.04 689.423L974.653 782.943C974.463 783.398 974.249 783.843 974.012 784.275H926.139C925.146 784.275 924.194 784.669 923.492 785.371C922.79 786.073 922.396 787.026 922.396 788.018C922.396 789.011 922.79 789.963 923.492 790.665C924.194 791.367 925.146 791.762 926.139 791.762H983.741V902.565H944.3V908.703H1031.75V902.565H992.476V791.745H1041.23C1044.01 791.745 1046.74 790.903 1049.04 789.329C1051.34 787.756 1053.11 785.524 1054.13 782.926L1090.84 688.799C1091.6 686.835 1091.88 684.713 1091.64 682.616C1091.41 680.52 1090.66 678.514 1089.47 676.772C1088.28 675.03 1086.68 673.606 1084.82 672.622C1082.95 671.638 1080.87 671.125 1078.76 671.127V671.127Z" fill="#CDCDCE"/>
<path opacity="0.3" d="M1078.76 671.127H1037.82C1032.03 671.117 1026.37 672.859 1021.59 676.125C1016.81 679.39 1013.14 684.027 1011.04 689.423L974.653 782.943C974.463 783.398 974.249 783.843 974.012 784.275H926.139C925.146 784.275 924.194 784.669 923.492 785.371C922.79 786.073 922.396 787.026 922.396 788.018C922.396 789.011 922.79 789.963 923.492 790.665C924.194 791.367 925.146 791.762 926.139 791.762H983.741V902.565H944.3V908.703H1031.75V902.565H992.476V791.745H1041.23C1044.01 791.745 1046.74 790.903 1049.04 789.329C1051.34 787.756 1053.11 785.524 1054.13 782.926L1090.84 688.799C1091.6 686.835 1091.88 684.713 1091.64 682.616C1091.41 680.52 1090.66 678.514 1089.47 676.772C1088.28 675.03 1086.68 673.606 1084.82 672.622C1082.95 671.638 1080.87 671.125 1078.76 671.127V671.127Z" fill="#F3525A"/>
<path d="M893.713 881.453C893.713 881.453 896.461 903.661 896.461 905.87H855.266C855.266 905.87 845.149 905.87 859.38 897.439C865.94 893.527 875.012 893.594 877.761 888.114C879.236 885.457 880.369 882.624 881.133 879.683L893.713 881.453Z" fill="#000D44"/>
<path d="M962.326 907.472H992.679C992.527 897.861 987.333 878.671 987.333 878.671L975.411 881.555C975.659 884.008 975.384 886.486 974.605 888.826C973.826 891.165 972.561 893.314 970.892 895.129C966.643 900.036 963.253 904.943 962.326 907.472Z" fill="#000D44"/>
<path d="M977.064 731.833C977.064 731.833 938.044 739.488 904.656 753.568C901.406 754.935 898.541 757.08 896.315 759.815C894.089 762.55 892.57 765.79 891.891 769.25C887.473 791.846 878.064 844.727 878.705 881.487H894.96L924.891 781.004C924.891 781.004 936.004 785.708 972.781 781.425C1009.56 777.142 1017.25 751.494 1017.25 751.494L977.064 731.833Z" fill="#1B255E"/>
<path d="M1043.55 723.975C1043.55 723.975 1052.54 764.445 1032.64 776.569C1012.74 788.693 978.683 782.336 978.683 782.336L991.515 882.398L971.634 883.039C971.634 883.039 949.106 807.157 942.142 772.741C941.281 768.458 941.85 764.011 943.759 760.081C945.669 756.152 948.815 752.958 952.714 750.988L987.114 733.519L1043.55 723.975Z" fill="#1B255E"/>
<path d="M1023.22 607.235C1023.22 607.235 1042.63 615.161 1047.36 623.862C1052.12 633.372 1050.92 718.494 1049.74 732.355C1046.98 743.046 982.038 740.668 965.8 733.536C959.864 729.185 978.463 630.202 982.038 622.243C985.613 614.284 996.692 611.164 996.692 611.164L1023.22 607.235Z" fill="#F3525A"/>
<path d="M1001.23 589.277C1000.26 596.276 998.568 603.154 996.169 609.799C996.169 609.799 995.208 616.544 1009.32 613.643C1023.44 610.743 1021.51 603.694 1021.51 603.694V575.804L1001.23 589.277Z" fill="#EFAB89"/>
<path d="M983.657 564.017C983.657 564.017 983.758 580.879 987.67 594.251C988.196 596.053 989.104 597.719 990.333 599.138C991.561 600.556 993.081 601.693 994.789 602.471C996.497 603.249 998.352 603.649 1000.23 603.645C1002.11 603.641 1003.96 603.232 1005.66 602.447C1012.13 599.406 1017.7 594.727 1021.8 588.872C1029.25 577.473 1029.1 560.307 1023.22 550.746C1017.33 541.185 997.923 544.001 992.19 547.374C986.456 550.746 983.337 559.835 983.657 564.017Z" fill="#F5B58F"/>
<path d="M1019.46 579.008C1019.46 579.008 1024.51 571.301 1027.89 575.888C1031.26 580.475 1019.64 589.867 1018.76 586.292C1018.28 583.849 1018.52 581.316 1019.46 579.008V579.008Z" fill="#F5B58F"/>
<path d="M983.657 564.017C983.657 564.017 974.349 555.839 985.579 545.249C991.987 540.443 995.208 543.967 1001.94 542.686C1008.66 541.404 1020.86 542.686 1025.34 549.734C1029.83 556.783 1028.22 573.14 1027.03 574.742C1025.83 576.343 1021.97 577.305 1021.97 580.188C1021.97 583.072 1021.33 585.247 1020.28 585.247C1019.24 585.247 1019.32 580.441 1019.32 576.917C1019.27 571.812 1018.52 566.739 1017.08 561.842C1015.39 557.036 1008.09 557.356 1005.27 557.997C1002.46 558.638 1000.35 566.108 983.657 564.017Z" fill="#000D44"/>
<path opacity="0.53" d="M1016.35 567.912L1016.88 567.676L1016.35 567.912Z" fill="#505E83"/>
<path d="M1021.45 601.705C1016.23 607.736 1008.97 611.617 1001.06 612.598C998.479 611.603 997.096 606.865 997.096 606.865L996.658 607.539C995.568 609.177 994.838 611.028 994.517 612.969C994.112 615.414 993.741 618.618 994.314 619.984C995.495 620.186 1001.28 613.66 1001.28 613.66C1001.28 613.66 1003.64 619.528 1005.81 620.405C1007.99 621.282 1021.85 611.974 1023.23 607.337C1023.15 605.333 1022.53 603.388 1021.45 601.705V601.705Z" fill="#F3525A"/>
<path opacity="0.25" d="M1021.45 601.705C1016.23 607.736 1008.97 611.617 1001.06 612.598C998.479 611.603 997.096 606.865 997.096 606.865L996.658 607.539C995.568 609.177 994.838 611.028 994.517 612.969C994.112 615.414 993.741 618.618 994.314 619.984C995.495 620.186 1001.28 613.66 1001.28 613.66C1001.28 613.66 1003.64 619.528 1005.81 620.405C1007.99 621.282 1021.85 611.974 1023.23 607.337C1023.15 605.333 1022.53 603.388 1021.45 601.705V601.705Z" fill="#000D44"/>
<path d="M940.725 685.697C940.725 685.697 931.316 683.134 926.83 682.054C922.345 680.975 910.575 693.386 910.373 695.73C911.873 697.416 939.444 696.151 939.444 696.151L941.585 693.369L940.725 685.697Z" fill="#F5B58F"/>
<path d="M940.118 685.393C940.118 685.393 1003.47 666.339 1013.03 675.191C1022.59 684.044 1013.81 698.799 999.643 700.047C985.478 701.295 940.624 694.229 940.624 694.229L940.118 685.393Z" fill="#F5B58F"/>
<path d="M947.672 681.683C947.672 681.683 947.672 692.374 950.05 695.544C956.39 696.725 1036.76 701.48 1043.49 694.364C1050.21 687.248 1052.59 630.624 1047.45 623.879C1039.93 617.539 1032 617.943 1028.04 625.059C1024.08 632.175 1017.75 671.785 1017.75 671.785C1017.75 671.785 992.729 668.21 947.672 681.683Z" fill="#F3525A"/>
<path opacity="0.07" d="M947.672 681.683C947.672 681.683 947.672 692.374 950.05 695.544C956.39 696.725 1036.76 701.48 1043.49 694.364C1050.21 687.248 1052.59 630.624 1047.45 623.879C1039.93 617.539 1032 617.943 1028.04 625.059C1024.08 632.175 1017.75 671.785 1017.75 671.785C1017.75 671.785 992.729 668.21 947.672 681.683Z" fill="#000D44"/>
<path d="M926.949 694.516H842.063C841.361 694.517 840.682 694.268 840.148 693.814C839.613 693.359 839.258 692.73 839.146 692.037L831.136 644.029C831.078 643.611 831.11 643.186 831.23 642.781C831.35 642.377 831.555 642.002 831.831 641.683C832.107 641.364 832.448 641.107 832.831 640.93C833.215 640.753 833.631 640.66 834.053 640.657H919.006C919.708 640.656 920.387 640.905 920.921 641.359C921.456 641.813 921.811 642.443 921.923 643.136L929.933 691.143C929.994 691.568 929.963 692 929.84 692.411C929.717 692.821 929.506 693.2 929.222 693.521C928.938 693.842 928.588 694.097 928.195 694.269C927.802 694.441 927.377 694.525 926.949 694.516V694.516Z" fill="#F3525A"/>
<path opacity="0.4" d="M926.949 694.516H842.063C841.361 694.517 840.682 694.268 840.148 693.814C839.613 693.359 839.258 692.73 839.146 692.037L831.136 644.029C831.078 643.611 831.11 643.186 831.23 642.781C831.35 642.377 831.555 642.002 831.831 641.683C832.107 641.364 832.448 641.107 832.831 640.93C833.215 640.753 833.631 640.66 834.053 640.657H919.006C919.708 640.656 920.387 640.905 920.921 641.359C921.456 641.813 921.811 642.443 921.923 643.136L929.933 691.143C929.994 691.568 929.963 692 929.84 692.411C929.717 692.821 929.506 693.2 929.222 693.521C928.938 693.842 928.588 694.097 928.195 694.269C927.802 694.441 927.377 694.525 926.949 694.516V694.516Z" fill="#000D44"/>
<path d="M885.568 670.588C885.742 671.567 885.698 672.573 885.437 673.533C885.177 674.493 884.708 675.383 884.064 676.141C883.419 676.898 882.615 677.503 881.709 677.914C880.803 678.324 879.817 678.529 878.823 678.513C876.629 678.451 874.526 677.625 872.876 676.178C871.227 674.731 870.133 672.754 869.785 670.588C869.61 669.609 869.655 668.603 869.915 667.643C870.175 666.683 870.644 665.793 871.289 665.035C871.933 664.278 872.738 663.672 873.644 663.262C874.55 662.852 875.535 662.647 876.53 662.663C878.723 662.725 880.826 663.551 882.476 664.997C884.126 666.444 885.219 668.421 885.568 670.588V670.588Z" fill="#CDCDCE"/>
<path d="M812.115 686.827H748.459V694.415H812.115V686.827Z" fill="#CDCDCE"/>
<path opacity="0.45" d="M812.115 686.827H748.459V694.415H812.115V686.827Z" fill="#F3525A"/>
<path d="M1132.25 697.484C1132.25 696.419 1131.83 695.398 1131.07 694.646C1130.32 693.893 1129.3 693.47 1128.24 693.47H236.21C235.143 693.47 234.12 693.894 233.366 694.648C232.612 695.402 232.188 696.425 232.188 697.492C232.188 698.559 232.612 699.582 233.366 700.336C234.12 701.09 235.143 701.514 236.21 701.514H248.486L192.84 918.821H198.421L258.502 701.48H327.133L271.486 918.821H277.068L337.115 701.48H984.905L1044.95 908.67H1050.53L994.888 701.48H1063.48L1123.53 908.67H1129.11L1073.55 701.48H1128.22C1128.75 701.482 1129.27 701.381 1129.76 701.181C1130.24 700.981 1130.69 700.688 1131.06 700.317C1131.44 699.945 1131.73 699.504 1131.94 699.018C1132.14 698.532 1132.25 698.011 1132.25 697.484V697.484Z" fill="#CDCDCE"/>
<path opacity="0.3" d="M1132.25 697.484C1132.25 696.419 1131.83 695.398 1131.07 694.646C1130.32 693.893 1129.3 693.47 1128.24 693.47H236.21C235.143 693.47 234.12 693.894 233.366 694.648C232.612 695.402 232.188 696.425 232.188 697.492C232.188 698.559 232.612 699.582 233.366 700.336C234.12 701.09 235.143 701.514 236.21 701.514H248.486L192.84 918.821H198.421L258.502 701.48H327.133L271.486 918.821H277.068L337.115 701.48H984.905L1044.95 908.67H1050.53L994.888 701.48H1063.48L1123.53 908.67H1129.11L1073.55 701.48H1128.22C1128.75 701.482 1129.27 701.381 1129.76 701.181C1130.24 700.981 1130.69 700.688 1131.06 700.317C1131.44 699.945 1131.73 699.504 1131.94 699.018C1132.14 698.532 1132.25 698.011 1132.25 697.484V697.484Z" fill="#F3525A"/>
<path d="M483.431 651.28H426.857C426.386 651.283 425.931 651.455 425.576 651.764C425.22 652.074 424.987 652.5 424.918 652.967L417.853 690.182H399.304C398.787 690.182 398.292 690.387 397.927 690.753C397.562 691.118 397.356 691.613 397.356 692.13C397.356 692.646 397.562 693.142 397.927 693.507C398.292 693.872 398.787 694.077 399.304 694.077H476.045C476.517 694.074 476.971 693.903 477.327 693.593C477.683 693.284 477.916 692.857 477.984 692.391L485.337 653.607C485.388 653.326 485.377 653.037 485.306 652.76C485.234 652.482 485.103 652.224 484.922 652.003C484.741 651.782 484.514 651.602 484.256 651.477C483.999 651.353 483.717 651.285 483.431 651.28Z" fill="#F3525A"/>
<path opacity="0.4" d="M483.431 651.28H426.857C426.386 651.283 425.931 651.455 425.576 651.764C425.22 652.074 424.987 652.5 424.918 652.967L417.853 690.182H399.304C398.787 690.182 398.292 690.387 397.927 690.753C397.562 691.118 397.356 691.613 397.356 692.13C397.356 692.646 397.562 693.142 397.927 693.507C398.292 693.872 398.787 694.077 399.304 694.077H476.045C476.517 694.074 476.971 693.903 477.327 693.593C477.683 693.284 477.916 692.857 477.984 692.391L485.337 653.607C485.388 653.326 485.377 653.037 485.306 652.76C485.234 652.482 485.103 652.224 484.922 652.003C484.741 651.782 484.514 651.602 484.256 651.477C483.999 651.353 483.717 651.285 483.431 651.28Z" fill="#000D44"/>
<path d="M600.676 921.536C600.676 921.536 608.652 897.051 606.207 887.811L572.246 887.912C572.246 887.912 567.963 895.584 567.727 921.536H600.676Z" fill="#000D44"/>
<path d="M629.309 780.869L606.443 888.688L569.109 889.497L583.409 771.915L629.309 780.869Z" fill="#1B255E"/>
<path d="M679.71 890.728C676.862 900.086 676.284 909.988 678.024 919.613H738.409C741.63 919.613 739.724 913.543 734.345 909.007C726.554 902.447 713.233 896.073 712.424 890.728H679.71Z" fill="#000D44"/>
<path d="M678.176 777.361L679.171 890.66L717.112 892.347C717.112 892.347 732.001 788.119 729.303 762.067C726.605 736.014 687.99 718.106 687.99 718.106L649.442 754.327L681.548 775.675L678.176 777.361Z" fill="#1B255E"/>
<path d="M639.763 561.032C638.294 559.922 637.285 558.308 636.931 556.501C636.576 554.693 636.9 552.819 637.841 551.235C637.841 551.235 631.872 535.047 635.075 522.468C636.677 516.178 639.392 513.632 641.702 512.637C642.812 512.206 643.807 511.525 644.611 510.648C645.415 509.771 646.006 508.721 646.34 507.578C647.015 505.348 648.142 503.282 649.651 501.506C651.159 499.731 653.017 498.285 655.108 497.258C665.765 491.289 685.798 497.68 694.313 502.587C696.55 503.996 699.249 504.475 701.834 503.919C702.575 503.753 703.347 503.801 704.061 504.057C704.775 504.314 705.402 504.769 705.867 505.369C706.332 505.968 706.617 506.688 706.688 507.444C706.759 508.199 706.614 508.959 706.269 509.635V509.77C706.076 510.131 705.992 510.539 706.026 510.946C706.059 511.354 706.21 511.743 706.459 512.066C706.708 512.39 707.046 512.636 707.431 512.773C707.815 512.91 708.232 512.933 708.63 512.839C710.417 512.418 712.002 512.603 712.272 514.306C713.132 518.775 707.213 527.021 690.587 533.631L677.097 573.544L648.549 570.34C648.549 570.34 636.981 572.111 639.763 561.032Z" fill="#000D44"/>
<path d="M696.64 529.482C696.64 529.482 696.219 585.972 676.186 576.478L672.139 582.97L637.841 576.9L639.763 561.015C639.763 561.015 644.822 567.221 660.217 566.985C674.045 566.765 673.707 554.557 673.707 554.557C673.707 554.557 665.411 552.635 669.458 543.057C673.505 533.479 681.818 537.509 678.614 550.51C678.614 550.51 687.4 547.137 685.275 533.968C685.359 533.968 693.049 533.546 696.64 529.482Z" fill="#F5B58F"/>
<path d="M672.814 587.607L672.409 582.093C672.255 580.009 671.437 578.029 670.074 576.445C668.711 574.86 666.876 573.755 664.838 573.291C656.54 571.377 648.06 570.359 639.544 570.256C637.541 570.235 635.58 570.828 633.925 571.956C632.27 573.083 631 574.691 630.287 576.563L628.078 582.397L672.814 587.607Z" fill="#F3525A"/>
<path opacity="0.25" d="M672.814 587.607L672.409 582.093C672.255 580.009 671.437 578.029 670.074 576.445C668.711 574.86 666.876 573.755 664.838 573.291C656.54 571.377 648.06 570.359 639.544 570.256C637.541 570.235 635.58 570.828 633.925 571.956C632.27 573.083 631 574.691 630.287 576.563L628.078 582.397L672.814 587.607Z" fill="#000D44"/>
<path d="M574.607 692.054C574.607 692.054 594.842 736.099 631.821 749.386C668.8 762.674 687.99 718.106 687.99 718.106L675.782 708.495L678.547 689.676L680.823 674.331L681.936 666.743L682.172 667.148C686.347 674.109 691.297 680.575 696.927 686.422C704.431 693.976 713.233 694.853 722.558 692.121C731.141 689.541 737.448 686.506 744.479 676.945C754.091 663.927 763.787 649.173 763.787 649.173C769.723 646.272 775.591 632.934 774.292 625.127C772.994 617.319 764.31 615.009 764.31 615.009L754.833 621.619C754.833 621.619 749.42 617.235 746.553 622.648C743.687 628.061 745.204 639.679 745.204 639.679L732.962 650.589L720.265 657.638C720.265 657.638 715.965 622.344 702.222 602.716C688.479 583.088 670.925 582.481 655.631 580.593C609.478 575.129 605.819 580.272 591.553 611.654C591.452 611.923 591.317 612.227 591.182 612.514C576.697 644.687 574.607 692.054 574.607 692.054Z" fill="#F3525A"/>
<path d="M746.166 675.343C755.777 662.325 763.787 649.257 763.787 649.257C769.723 646.356 775.591 633.018 774.292 625.211C772.994 617.404 764.31 615.093 764.31 615.093L754.833 621.704C754.833 621.704 749.42 617.319 746.554 622.732C743.687 628.145 745.204 639.763 745.204 639.763L732.962 650.673C738.679 656.946 747.852 662.814 746.166 675.343Z" fill="#F5B58F"/>
<path d="M754.816 621.67L771.864 593.965C772.178 593.456 772.679 593.092 773.26 592.95C773.84 592.808 774.453 592.9 774.967 593.206V593.206C775.229 593.363 775.456 593.571 775.636 593.818C775.816 594.064 775.944 594.345 776.013 594.642C776.082 594.939 776.091 595.248 776.039 595.549C775.987 595.849 775.874 596.136 775.709 596.393L757.7 624.199C757.7 624.199 754.985 623.693 754.816 621.67Z" fill="#F3525A"/>
<path opacity="0.4" d="M754.816 621.67L771.864 593.965C772.178 593.456 772.679 593.092 773.26 592.95C773.84 592.808 774.453 592.9 774.967 593.206V593.206C775.229 593.363 775.456 593.571 775.636 593.818C775.816 594.064 775.944 594.345 776.013 594.642C776.082 594.939 776.091 595.248 776.039 595.549C775.987 595.849 775.874 596.136 775.709 596.393L757.7 624.199C757.7 624.199 754.985 623.693 754.816 621.67Z" fill="#000D44"/>
<path d="M732.929 650.64C732.929 650.64 746.149 652.494 747.852 677.029L739.421 687.147C739.421 687.147 730.365 665.04 721.024 657.233L732.929 650.64Z" fill="#F3525A"/>
<path opacity="0.25" d="M732.929 650.64C732.929 650.64 746.149 652.494 747.852 677.029L739.421 687.147C739.421 687.147 730.365 665.04 721.024 657.233L732.929 650.64Z" fill="#000D44"/>
<path d="M713.419 921.283H724.649L703.031 786.686H703.891C703.891 786.686 701.16 773.28 695.005 771.426C688.85 769.571 671.397 770.06 666.962 763.601C662.528 757.143 638.583 680.739 626.948 672.325C617.235 665.293 564 667.08 546.817 667.856C546.174 667.883 545.546 668.055 544.979 668.359C544.412 668.663 543.922 669.092 543.544 669.612C543.166 670.133 542.911 670.732 542.797 671.366C542.684 671.999 542.715 672.649 542.888 673.269L569.649 769.385C570.855 773.868 573.26 777.937 576.605 781.155C579.951 784.372 584.11 786.617 588.636 787.647L567.17 921.367H578.384L603.846 788.153L610.372 788.069L625.818 921.418H636.188L623.508 787.883L668.345 787.276L655.597 921.401H666.069L681.616 787.091H687.805L713.419 921.283Z" fill="#CDCDCE"/>
<path opacity="0.3" d="M713.419 921.283H724.649L703.031 786.686H703.891C703.891 786.686 701.16 773.28 695.005 771.426C688.85 769.571 671.397 770.06 666.962 763.601C662.528 757.143 638.583 680.739 626.948 672.325C617.235 665.293 564 667.08 546.817 667.856C546.174 667.883 545.546 668.055 544.979 668.359C544.412 668.663 543.922 669.092 543.544 669.612C543.166 670.133 542.911 670.732 542.797 671.366C542.684 671.999 542.715 672.649 542.888 673.269L569.649 769.385C570.855 773.868 573.26 777.937 576.605 781.155C579.951 784.372 584.11 786.617 588.636 787.647L567.17 921.367H578.384L603.846 788.153L610.372 788.069L625.818 921.418H636.188L623.508 787.883L668.345 787.276L655.597 921.401H666.069L681.616 787.091H687.805L713.419 921.283Z" fill="#F3525A"/>
<path opacity="0.15" d="M651.736 928.281C729.964 928.281 793.381 926.771 793.381 924.908C793.381 923.046 729.964 921.536 651.736 921.536C573.507 921.536 510.091 923.046 510.091 924.908C510.091 926.771 573.507 928.281 651.736 928.281Z" fill="#F3525A"/>
<path opacity="0.15" d="M340.622 924.908C429.561 924.908 501.659 923.398 501.659 921.536C501.659 919.673 429.561 918.163 340.622 918.163C251.684 918.163 179.586 919.673 179.586 921.536C179.586 923.398 251.684 924.908 340.622 924.908Z" fill="#F3525A"/>
<path d="M452.758 668.598C456.483 668.598 459.503 667.088 459.503 665.226C459.503 663.363 456.483 661.853 452.758 661.853C449.033 661.853 446.013 663.363 446.013 665.226C446.013 667.088 449.033 668.598 452.758 668.598Z" fill="#CDCDCE"/>
<path opacity="0.3" d="M452.758 668.598C456.483 668.598 459.503 667.088 459.503 665.226C459.503 663.363 456.483 661.853 452.758 661.853C449.033 661.853 446.013 663.363 446.013 665.226C446.013 667.088 449.033 668.598 452.758 668.598Z" fill="#F3525A"/>
</g>
<defs>
<clipPath id="clip0">
<rect width="1349" height="1011.75" fill="white"/>
</clipPath>
</defs>
</svg>
