<svg width="1094" height="821" viewBox="0 0 1094 821" fill="none" xmlns="http://www.w3.org/2000/svg">
<path d="M457.073 134.179C457.073 134.179 397.669 112.135 360.555 155.471C339.277 180.346 203.197 439.761 204.824 462.475C206.451 485.189 219.429 496.539 219.429 496.539C219.429 496.539 213.754 476.67 218.062 466.331C218.062 466.331 215.327 501.312 236.919 516.218C248.174 523.985 528.306 508.778 552.648 474.851C605.57 401.088 489.989 362.921 492.833 283.223C494.406 237.001 539.807 138.842 457.073 134.179Z" fill="#000D44"/>
<path d="M513.674 299.4L509.695 300.207C501.149 301.906 492.278 300.154 485.02 295.335C477.761 290.515 472.704 283.02 470.953 274.485L466.755 253.671C465.057 245.126 466.808 236.255 471.628 228.996C476.447 221.738 483.943 216.681 492.478 214.93L496.457 214.123C505.003 212.421 513.876 214.171 521.135 218.991C528.395 223.811 533.451 231.309 535.198 239.846L539.397 260.659C541.095 269.205 539.344 278.075 534.524 285.334C529.705 292.593 522.209 297.65 513.674 299.4V299.4Z" fill="#F3525A"/>
<path d="M535.499 466.947C521.25 479.418 502.857 490.454 479.158 498.823C390.271 530.276 346.62 457.046 327.516 405.601C336.452 399.244 346.614 394.819 357.355 392.609C363.864 391.091 370.743 389.792 376.5 388.849C385.854 379.851 397.491 346.005 395.235 295.763L399.652 296.433L473.784 307.988C473.784 307.988 473.073 331.236 473.893 353.007C474.55 370.059 476.191 386.237 479.828 389.82C483.428 390.252 486.847 391.641 489.729 393.84V392.473C507.46 415.689 522.795 440.641 535.499 466.947V466.947Z" fill="#F5B58F"/>
<path d="M473.729 308.002C473.729 308.002 473.005 331.25 473.852 353.02C432.65 353.54 409.361 316.891 399.597 296.447L473.729 308.002Z" fill="#EFAB89"/>
<path d="M487.281 329.239C487.281 329.239 389.915 333.342 388.302 272.638C386.688 211.935 373.04 171.621 435.139 166.452C497.237 161.283 509.941 184.106 515.397 204.236C520.853 224.366 512.566 326.6 487.281 329.239Z" fill="#F5B58F"/>
<path d="M481.839 314.744L476.533 313.376C475.783 313.193 475.001 313.183 474.247 313.349C473.493 313.515 472.787 313.852 472.184 314.334C421.026 300.371 405.587 253.507 405.409 252.96L402.524 253.876L399.611 254.793C399.775 255.312 416.13 305.39 470.639 320.227C470.938 320.962 471.406 321.615 472.005 322.136C472.603 322.656 473.316 323.028 474.085 323.222L479.404 324.59C480.68 324.836 482.001 324.584 483.096 323.885C484.19 323.186 484.976 322.094 485.289 320.834C485.603 319.574 485.422 318.241 484.782 317.111C484.143 315.98 483.094 315.138 481.852 314.757L481.839 314.744Z" fill="#000D44"/>
<path d="M432.13 128.695C432.13 128.695 494.83 118.904 520.758 171.088C540.504 210.814 524.04 235.634 516.3 243.237C516.3 243.237 506.057 186.171 486.898 181.303C486.898 181.303 474.591 177.529 466.126 187.32C457.661 197.111 445.518 240.789 431.528 247.49C431.528 247.49 388.083 258.211 385.95 243.059C383.816 227.908 385.006 180.701 395.96 173.098C406.913 165.495 432.13 128.695 432.13 128.695Z" fill="#000D44"/>
<path d="M412.315 299.401L408.336 300.207C399.79 301.906 390.919 300.154 383.661 295.335C376.402 290.515 371.345 283.02 369.594 274.485L365.396 253.671C363.697 245.129 365.448 236.262 370.264 229.006C375.081 221.75 382.574 216.695 391.105 214.944L395.084 214.137C403.63 212.438 412.501 214.19 419.759 219.009C427.018 223.829 432.075 231.324 433.826 239.86L438.024 260.673C439.723 269.215 437.972 278.082 433.155 285.338C428.339 292.594 420.846 297.65 412.315 299.401V299.401Z" fill="#F3525A"/>
<path d="M381.327 224.461C378.661 220.14 374.75 185.324 385.43 157.604C387.48 151.871 390.648 146.602 394.752 142.104C398.855 137.606 403.812 133.969 409.334 131.403C413.163 129.521 417.374 128.543 421.641 128.545L432.13 128.695C397.587 141.837 389.573 212.181 392.267 219.689C392.196 219.506 392.104 219.332 391.994 219.169L381.327 224.461Z" fill="#F3525A"/>
<path d="M402.948 278.97L400.965 279.367C396.723 280.22 392.316 279.364 388.703 276.985C385.089 274.606 382.561 270.896 381.669 266.662L379.577 256.297C378.722 252.038 379.591 247.613 381.993 243.994C384.395 240.374 388.134 237.855 392.39 236.988L394.373 236.591C398.63 235.74 403.051 236.611 406.668 239.013C410.284 241.414 412.801 245.151 413.669 249.405L415.761 259.77C416.584 264.013 415.7 268.409 413.301 272.004C410.902 275.599 407.181 278.102 402.948 278.97V278.97Z" fill="#F3525A"/>
<path opacity="0.35" d="M402.948 278.97L400.965 279.367C396.723 280.22 392.316 279.364 388.703 276.985C385.089 274.606 382.561 270.896 381.669 266.662L379.577 256.297C378.722 252.038 379.591 247.613 381.993 243.994C384.395 240.374 388.134 237.855 392.39 236.988L394.373 236.591C398.63 235.74 403.051 236.611 406.668 239.013C410.284 241.414 412.801 245.151 413.669 249.405L415.761 259.77C416.584 264.013 415.7 268.409 413.301 272.004C410.902 275.599 407.181 278.102 402.948 278.97V278.97Z" fill="#000D44"/>
<path d="M905.791 202.363C950.826 202.363 987.335 165.854 987.335 120.819C987.335 75.783 950.826 39.2745 905.791 39.2745C860.755 39.2745 824.247 75.783 824.247 120.819C824.247 165.854 860.755 202.363 905.791 202.363Z" fill="#F3525A"/>
<path d="M905.791 188.989C943.44 188.989 973.961 158.468 973.961 120.819C973.961 83.1695 943.44 52.6488 905.791 52.6488C868.142 52.6488 837.621 83.1695 837.621 120.819C837.621 158.468 868.142 188.989 905.791 188.989Z" fill="white"/>
<path d="M905.791 67.322C908.178 67.322 910.112 65.3873 910.112 63.0007C910.112 60.6142 908.178 58.6794 905.791 58.6794C903.404 58.6794 901.47 60.6142 901.47 63.0007C901.47 65.3873 903.404 67.322 905.791 67.322Z" fill="#F3525A"/>
<path d="M961.011 125.14C963.397 125.14 965.332 123.205 965.332 120.819C965.332 118.432 963.397 116.497 961.011 116.497C958.624 116.497 956.689 118.432 956.689 120.819C956.689 123.205 958.624 125.14 961.011 125.14Z" fill="#F3525A"/>
<path d="M848.835 125.14C851.221 125.14 853.156 123.205 853.156 120.819C853.156 118.432 851.221 116.497 848.835 116.497C846.448 116.497 844.513 118.432 844.513 120.819C844.513 123.205 846.448 125.14 848.835 125.14Z" fill="#F3525A"/>
<path d="M905.791 179.498C908.178 179.498 910.112 177.563 910.112 175.177C910.112 172.79 908.178 170.855 905.791 170.855C903.404 170.855 901.47 172.79 901.47 175.177C901.47 177.563 903.404 179.498 905.791 179.498Z" fill="#F3525A"/>
<path d="M905.791 126.863C909.129 126.863 911.835 124.157 911.835 120.819C911.835 117.48 909.129 114.774 905.791 114.774C902.453 114.774 899.747 117.48 899.747 120.819C899.747 124.157 902.453 126.863 905.791 126.863Z" fill="#F3525A"/>
<path d="M932.539 73.845C932.455 73.8418 932.374 73.8144 932.305 73.7662C932.236 73.7179 932.182 73.6508 932.151 73.5728C932.119 73.4949 932.11 73.4095 932.126 73.3268C932.141 73.2441 932.18 73.1676 932.238 73.1066L936.56 68.7853C936.598 68.7375 936.646 68.6984 936.701 68.6705C936.756 68.6425 936.816 68.6264 936.877 68.6232C936.938 68.6199 936.999 68.6296 937.057 68.6516C937.114 68.6735 937.166 68.7073 937.21 68.7507C937.253 68.7941 937.287 68.8462 937.309 68.9035C937.331 68.9608 937.34 69.0221 937.337 69.0834C937.334 69.1447 937.318 69.2046 937.29 69.2593C937.262 69.3139 937.223 69.3621 937.175 69.4006L932.854 73.7219C932.812 73.7629 932.763 73.795 932.709 73.8161C932.655 73.8373 932.597 73.8471 932.539 73.845V73.845Z" fill="#F3525A"/>
<path d="M951.52 93.6327C951.428 93.6309 951.339 93.6001 951.266 93.5449C951.192 93.4896 951.138 93.4127 951.111 93.3249C951.084 93.2371 951.085 93.143 951.114 93.0559C951.143 92.9688 951.199 92.8931 951.274 92.8396L956.457 89.3935C956.504 89.3532 956.559 89.3234 956.619 89.306C956.678 89.2887 956.741 89.2842 956.802 89.2929C956.864 89.3015 956.922 89.3231 956.975 89.3563C957.027 89.3894 957.072 89.4333 957.106 89.485C957.14 89.5368 957.163 89.5952 957.173 89.6564C957.183 89.7176 957.18 89.7803 957.164 89.8401C957.147 89.9 957.119 89.9557 957.079 90.0037C957.04 90.0516 956.991 90.0907 956.935 90.1182L951.78 93.5643C951.703 93.6147 951.612 93.6387 951.52 93.6327V93.6327Z" fill="#F3525A"/>
<path d="M956.703 147.991C956.616 147.994 956.53 147.97 956.457 147.922L951.274 144.476C951.193 144.407 951.14 144.31 951.125 144.205C951.11 144.099 951.134 143.992 951.193 143.903C951.252 143.813 951.341 143.749 951.444 143.721C951.547 143.693 951.657 143.704 951.753 143.752L956.936 147.198C957.01 147.251 957.066 147.327 957.095 147.414C957.125 147.501 957.126 147.595 957.098 147.683C957.071 147.771 957.017 147.848 956.944 147.903C956.87 147.958 956.781 147.989 956.689 147.991H956.703Z" fill="#F3525A"/>
<path d="M938.584 170.432C938.508 170.43 938.435 170.409 938.37 170.371C938.306 170.332 938.252 170.278 938.214 170.213L934.768 164.168C934.733 164.071 934.733 163.964 934.769 163.867C934.805 163.77 934.874 163.689 934.965 163.638C935.055 163.587 935.16 163.57 935.262 163.589C935.364 163.609 935.455 163.664 935.52 163.744L938.967 169.789C939.001 169.854 939.019 169.927 939.018 170.001C939.017 170.075 938.997 170.148 938.96 170.212C938.923 170.276 938.87 170.33 938.807 170.369C938.743 170.407 938.671 170.429 938.597 170.432H938.584Z" fill="#F3525A"/>
<path d="M875.597 171.293C875.515 171.291 875.436 171.265 875.368 171.221C875.301 171.176 875.247 171.113 875.213 171.039C875.178 170.965 875.166 170.883 875.175 170.803C875.185 170.722 875.217 170.645 875.268 170.582L879.576 165.467C879.606 165.409 879.649 165.359 879.701 165.319C879.753 165.28 879.814 165.252 879.878 165.239C879.942 165.226 880.009 165.228 880.072 165.244C880.136 165.26 880.195 165.29 880.245 165.332C880.295 165.374 880.336 165.427 880.363 165.486C880.39 165.546 880.404 165.611 880.402 165.676C880.401 165.742 880.385 165.806 880.356 165.865C880.326 165.923 880.284 165.974 880.232 166.014L875.911 171.197C875.823 171.269 875.71 171.303 875.597 171.293V171.293Z" fill="#F3525A"/>
<path d="M855.74 148.866C855.649 148.864 855.56 148.834 855.486 148.778C855.413 148.723 855.359 148.646 855.331 148.558C855.304 148.471 855.305 148.376 855.334 148.289C855.364 148.202 855.42 148.126 855.494 148.073L860.677 144.627C860.773 144.579 860.882 144.569 860.985 144.596C861.089 144.624 861.178 144.689 861.237 144.778C861.295 144.867 861.32 144.974 861.305 145.08C861.29 145.186 861.237 145.282 861.156 145.352L855.973 148.798C855.904 148.843 855.823 148.866 855.74 148.866V148.866Z" fill="#F3525A"/>
<path d="M860.923 91.9096C860.86 91.9242 860.795 91.9242 860.732 91.9096L855.549 89.3251C855.486 89.3086 855.427 89.2783 855.377 89.2364C855.328 89.1944 855.288 89.1418 855.261 89.0825C855.234 89.0231 855.221 88.9585 855.222 88.8934C855.223 88.8282 855.239 88.7642 855.268 88.7059C855.297 88.6476 855.339 88.5966 855.39 88.5565C855.442 88.5164 855.501 88.4883 855.565 88.4743C855.629 88.4602 855.695 88.4606 855.758 88.4753C855.821 88.49 855.881 88.5187 855.932 88.5593L861.115 91.1438C861.198 91.1899 861.265 91.2619 861.303 91.3491C861.342 91.4362 861.351 91.5337 861.33 91.6266C861.308 91.7195 861.257 91.8028 861.183 91.8638C861.11 91.9247 861.019 91.9601 860.923 91.9643V91.9096Z" fill="#F3525A"/>
<path d="M879.043 72.9288C878.972 72.9278 878.903 72.9098 878.842 72.8765C878.78 72.8432 878.727 72.7954 878.687 72.7373L875.2 67.5545C875.16 67.5073 875.13 67.4522 875.113 67.3926C875.095 67.3331 875.091 67.2705 875.099 67.2091C875.108 67.1477 875.13 67.0889 875.163 67.0365C875.196 66.984 875.24 66.9393 875.292 66.9051C875.343 66.8709 875.402 66.8481 875.463 66.8382C875.524 66.8284 875.587 66.8316 875.647 66.8477C875.707 66.8639 875.762 66.8926 875.81 66.9319C875.858 66.9712 875.897 67.0203 875.925 67.0759L879.371 72.2587C879.412 72.3238 879.435 72.3986 879.438 72.4755C879.441 72.5523 879.423 72.6286 879.387 72.6965C879.351 72.7645 879.298 72.8217 879.232 72.8625C879.167 72.9033 879.092 72.9261 879.015 72.9288H879.043Z" fill="#F3525A"/>
<path d="M907.514 70.7681H904.068V115.376H907.514V70.7681Z" fill="#F3525A"/>
<path d="M910.099 122.542L924.348 136.777L922.187 138.938L907.514 125.126L910.099 122.542Z" fill="#F3525A"/>
<path d="M666.137 393.977V411.043L690.369 393.977H755.27C755.935 393.977 756.593 393.846 757.207 393.592C757.82 393.337 758.378 392.965 758.848 392.495C759.318 392.025 759.691 391.467 759.945 390.853C760.199 390.239 760.33 389.581 760.33 388.917V333.178C760.33 332.513 760.199 331.855 759.945 331.241C759.691 330.628 759.318 330.07 758.848 329.6C758.378 329.13 757.82 328.757 757.207 328.503C756.593 328.249 755.935 328.118 755.27 328.118H657.207C655.865 328.118 654.578 328.651 653.629 329.6C652.68 330.549 652.147 331.836 652.147 333.178V388.917C652.147 390.259 652.68 391.546 653.629 392.495C654.578 393.444 655.865 393.977 657.207 393.977H666.137Z" fill="white"/>
<path d="M666.137 393.977V411.043L690.369 393.977H755.27C755.935 393.977 756.593 393.846 757.207 393.592C757.82 393.337 758.378 392.965 758.848 392.495C759.318 392.025 759.691 391.467 759.945 390.853C760.199 390.239 760.33 389.581 760.33 388.917V333.178C760.33 332.513 760.199 331.855 759.945 331.241C759.691 330.628 759.318 330.07 758.848 329.6C758.378 329.13 757.82 328.757 757.207 328.503C756.593 328.249 755.935 328.118 755.27 328.118H657.207C655.865 328.118 654.578 328.651 653.629 329.6C652.68 330.549 652.147 331.836 652.147 333.178V388.917C652.147 390.259 652.68 391.546 653.629 392.495C654.578 393.444 655.865 393.977 657.207 393.977H666.137Z" fill="#F3525A"/>
<path d="M685.254 343.119H668.53V348.918H685.254V343.119Z" fill="white"/>
<path d="M722.45 356.781H668.53V362.579H722.45V356.781Z" fill="white"/>
<path d="M706.068 368.377H668.53V374.175H706.068V368.377Z" fill="white"/>
<path d="M743.947 356.781H726.539V362.579H743.947V356.781Z" fill="white"/>
<path d="M743.947 343.119H689.001V348.918H743.947V343.119Z" fill="white"/>
<path d="M842.544 429.532V446.598L866.776 429.532H931.678C933.02 429.532 934.307 428.999 935.256 428.05C936.204 427.101 936.737 425.814 936.737 424.472V368.733C936.737 367.391 936.204 366.104 935.256 365.155C934.307 364.206 933.02 363.673 931.678 363.673H833.614C832.272 363.673 830.985 364.206 830.037 365.155C829.088 366.104 828.555 367.391 828.555 368.733V424.472C828.555 425.814 829.088 427.101 830.037 428.05C830.985 428.999 832.272 429.532 833.614 429.532H842.544Z" fill="white"/>
<path d="M842.544 429.532V446.598L866.776 429.532H931.678C933.02 429.532 934.307 428.999 935.256 428.05C936.204 427.101 936.737 425.814 936.737 424.472V368.733C936.737 367.391 936.204 366.104 935.256 365.155C934.307 364.206 933.02 363.673 931.678 363.673H833.614C832.272 363.673 830.985 364.206 830.037 365.155C829.088 366.104 828.555 367.391 828.555 368.733V424.472C828.555 425.814 829.088 427.101 830.037 428.05C830.985 428.999 832.272 429.532 833.614 429.532H842.544Z" fill="#F3525A"/>
<path d="M861.662 378.674H844.937V384.473H861.662V378.674Z" fill="white"/>
<path d="M898.858 392.336H844.937V398.134H898.858V392.336Z" fill="white"/>
<path d="M882.475 403.932H844.937V409.73H882.475V403.932Z" fill="white"/>
<path d="M920.355 392.336H902.947V398.134H920.355V392.336Z" fill="white"/>
<path d="M920.355 378.674H865.409V384.473H920.355V378.674Z" fill="white"/>
<path d="M661.761 591.116L645.925 667.627H625.809C625.809 667.627 559.417 606.267 553.332 583.129L535.376 407.105C535.376 407.105 576.018 418.66 628.366 521.264L661.761 591.116Z" fill="#F3525A"/>
<path opacity="0.05" d="M661.761 591.116L645.925 667.627H625.809C625.809 667.627 559.417 606.267 553.332 583.129L535.376 407.105C535.376 407.105 576.018 418.66 628.366 521.264L661.761 591.116Z" fill="#000D44"/>
<path d="M168.763 652.503C167.601 663.675 170.295 675.75 178.336 683.641C188.947 694.075 205.494 694.581 220.386 694.581L411.153 693.555C411.262 687.21 411.399 680.728 413.669 674.807C415.939 668.885 420.807 663.552 427.07 662.499C430.708 661.925 434.414 662.841 438.01 663.743L567.157 696.563C563.15 669.213 559.362 640.113 570.658 614.883C575.417 604.244 582.664 594.835 587.218 584.1C596.408 562.425 593.7 537.4 586.534 514.973C579.369 492.546 568.018 471.692 559.8 449.62C555.602 438.379 552.155 426.66 545.441 416.705C538.262 406.065 529.633 402.578 518.159 398.517C506.686 394.455 480.116 389.738 480.116 389.738L439.091 497.77C439.091 497.77 390.49 384.363 378.921 385.635C340.89 389.806 327.338 402.168 298.662 427.494C272.789 450.345 254.902 480.717 237.754 510.638C217.036 546.658 196.551 582.883 179.156 620.626C178.6 621.83 178.049 623.038 177.502 624.25C173.426 633.317 169.789 642.643 168.763 652.503ZM271.216 627.888L317.492 561.496L329.568 636.94L271.216 627.888Z" fill="#F3525A"/>
<path d="M317.492 561.495L329.568 636.94C329.568 636.94 349.683 641.973 369.799 645.993C389.915 650.014 436.232 651.026 436.232 663.101L566.87 696.536H566.979L566.842 696.276C562.863 688.823 540.491 636.763 476.464 640.975C400.007 646.007 345.69 610.794 339.714 601.741C333.738 592.688 317.492 561.495 317.492 561.495Z" fill="#F3525A"/>
<path opacity="0.05" d="M317.492 561.495L329.568 636.94C329.568 636.94 349.683 641.973 369.799 645.993C389.915 650.014 436.232 651.026 436.232 663.101L566.87 696.536H566.979L566.842 696.276C562.863 688.823 540.491 636.763 476.464 640.975C400.007 646.007 345.69 610.794 339.714 601.741C333.738 592.688 317.492 561.495 317.492 561.495Z" fill="#000D44"/>
<path d="M553.154 693.322C553.154 693.322 537.427 668.352 522.85 666.328C521.731 666.193 520.703 665.647 519.965 664.797C516.901 661.173 506.796 652.092 484.861 656.154C484.861 656.154 455.583 657.822 445.121 663.47C444.286 663.911 443.366 664.169 442.423 664.228C441.48 664.287 440.535 664.145 439.651 663.812C434.086 661.706 422.352 658.998 415.624 670.212C411.553 677.193 409.779 685.278 410.551 693.322L554.508 696.057L553.154 693.322Z" fill="#F5B58F"/>
<path d="M168.203 647.265C168.203 653.34 170.616 659.166 174.911 663.462C179.207 667.757 185.033 670.171 191.108 670.171V685.118C191.108 688.643 192.509 692.024 195.001 694.516C197.494 697.009 200.875 698.41 204.4 698.41H246.56C250.081 698.402 253.455 696.999 255.942 694.507C258.428 692.015 259.825 688.638 259.825 685.118V602.315H191.122V624.346C188.111 624.344 185.13 624.936 182.349 626.087C179.567 627.238 177.04 628.926 174.911 631.055C172.783 633.183 171.095 635.711 169.943 638.492C168.792 641.274 168.201 644.255 168.203 647.265V647.265ZM175.724 647.265C175.724 643.185 177.345 639.272 180.23 636.387C183.115 633.502 187.028 631.881 191.108 631.881V662.649C187.03 662.646 183.121 661.023 180.239 658.139C177.356 655.254 175.737 651.343 175.737 647.265H175.724Z" fill="white"/>
<path opacity="0.3" d="M168.203 647.265C168.203 653.34 170.616 659.166 174.911 663.462C179.207 667.757 185.033 670.171 191.108 670.171V685.118C191.108 688.643 192.509 692.024 195.001 694.516C197.494 697.009 200.875 698.41 204.4 698.41H246.56C250.081 698.402 253.455 696.999 255.942 694.507C258.428 692.015 259.825 688.638 259.825 685.118V602.315H191.122V624.346C188.111 624.344 185.13 624.936 182.349 626.087C179.567 627.238 177.04 628.926 174.911 631.055C172.783 633.183 171.095 635.711 169.943 638.492C168.792 641.274 168.201 644.255 168.203 647.265V647.265ZM175.724 647.265C175.724 643.185 177.345 639.272 180.23 636.387C183.115 633.502 187.028 631.881 191.108 631.881V662.649C187.03 662.646 183.121 661.023 180.239 658.139C177.356 655.254 175.737 651.343 175.737 647.265H175.724Z" fill="#F3525A"/>
<path d="M239.75 657.863H241.35C243.593 657.863 245.412 656.045 245.412 653.802V620.708C245.412 618.465 243.593 616.647 241.35 616.647H239.75C237.507 616.647 235.689 618.465 235.689 620.708V653.802C235.689 656.045 237.507 657.863 239.75 657.863Z" fill="white"/>
<path opacity="0.4" d="M239.75 657.863H241.35C243.593 657.863 245.412 656.045 245.412 653.802V620.708C245.412 618.465 243.593 616.647 241.35 616.647H239.75C237.507 616.647 235.689 618.465 235.689 620.708V653.802C235.689 656.045 237.507 657.863 239.75 657.863Z" fill="#F3525A"/>
<path d="M796.227 679.948H507.288C503.247 679.948 499.972 683.224 499.972 687.264V689.22C499.972 693.261 503.247 696.536 507.288 696.536H796.227C800.267 696.536 803.543 693.261 803.543 689.22V687.264C803.543 683.224 800.267 679.948 796.227 679.948Z" fill="#F3525A"/>
<path opacity="0.35" d="M796.227 679.948H507.288C503.247 679.948 499.972 683.224 499.972 687.264V689.22C499.972 693.261 503.247 696.536 507.288 696.536H796.227C800.267 696.536 803.543 693.261 803.543 689.22V687.264C803.543 683.224 800.267 679.948 796.227 679.948Z" fill="#000D44"/>
<path d="M640.852 696.536H907.719C911.259 696.536 914.712 695.447 917.611 693.416C920.51 691.386 922.714 688.512 923.924 685.186L974.727 514.248C975.677 511.643 975.984 508.846 975.624 506.097C975.263 503.347 974.244 500.725 972.653 498.452C971.063 496.18 968.948 494.325 966.488 493.045C964.028 491.764 961.295 491.096 958.522 491.097H691.654C688.115 491.097 684.661 492.186 681.762 494.217C678.863 496.247 676.659 499.121 675.449 502.447L624.647 673.384C623.697 675.99 623.389 678.786 623.75 681.536C624.111 684.286 625.13 686.908 626.72 689.18C628.31 691.452 630.425 693.307 632.885 694.588C635.345 695.868 638.078 696.537 640.852 696.536V696.536Z" fill="#F3525A"/>
<path opacity="0.3" d="M640.852 696.536H907.719C911.259 696.536 914.712 695.447 917.611 693.416C920.51 691.386 922.714 688.512 923.924 685.186L974.727 514.248C975.677 511.643 975.984 508.846 975.624 506.097C975.263 503.347 974.244 500.725 972.653 498.452C971.063 496.18 968.948 494.325 966.488 493.045C964.028 491.764 961.295 491.096 958.522 491.097H691.654C688.115 491.097 684.661 492.186 681.762 494.217C678.863 496.247 676.659 499.121 675.449 502.447L624.647 673.384C623.697 675.99 623.389 678.786 623.75 681.536C624.111 684.286 625.13 686.908 626.72 689.18C628.31 691.452 630.425 693.307 632.885 694.588C635.345 695.868 638.078 696.537 640.852 696.536V696.536Z" fill="#000D44"/>
<path d="M964.675 492.204C963.677 593.249 839.768 674.984 672.947 674.984C656.537 674.984 640.551 674.191 624.893 672.673L675.49 502.419C676.7 499.093 678.904 496.22 681.803 494.189C684.702 492.159 688.156 491.069 691.695 491.069H958.522C960.625 491.069 962.711 491.453 964.675 492.204V492.204Z" fill="#F3525A"/>
<path opacity="0.35" d="M964.675 492.204C963.677 593.249 839.768 674.984 672.947 674.984C656.537 674.984 640.551 674.191 624.893 672.673L675.49 502.419C676.7 499.093 678.904 496.22 681.803 494.189C684.702 492.159 688.156 491.069 691.695 491.069H958.522C960.625 491.069 962.711 491.453 964.675 492.204V492.204Z" fill="#000D44"/>
<path d="M809.396 610.602C820.551 610.602 829.594 601.559 829.594 590.404C829.594 579.249 820.551 570.206 809.396 570.206C798.241 570.206 789.198 579.249 789.198 590.404C789.198 601.559 798.241 610.602 809.396 610.602Z" fill="white"/>
<path opacity="0.3" d="M809.396 610.602C820.551 610.602 829.594 601.559 829.594 590.404C829.594 579.249 820.551 570.206 809.396 570.206C798.241 570.206 789.198 579.249 789.198 590.404C789.198 601.559 798.241 610.602 809.396 610.602Z" fill="#F3525A"/>
<path d="M111.451 728.618L970.364 728.618C978.295 728.618 984.723 722.189 984.723 714.259V708.611C984.723 700.681 978.295 694.252 970.364 694.252L111.451 694.252C103.521 694.252 97.0926 700.681 97.0926 708.611V714.259C97.0926 722.189 103.521 728.618 111.451 728.618Z" fill="#F3525A"/>
<path opacity="0.1" d="M111.451 728.618L970.364 728.618C978.295 728.618 984.723 722.189 984.723 714.259V708.611C984.723 700.681 978.295 694.252 970.364 694.252L111.451 694.252C103.521 694.252 97.0926 700.681 97.0926 708.611V714.259C97.0926 722.189 103.521 728.618 111.451 728.618Z" fill="#000D44"/>
</svg>
