<?xml version="1.0" encoding="utf-8"?>
<!-- Generator: Adobe Illustrator 26.0.0, SVG Export Plug-In . SVG Version: 6.00 Build 0)  -->
<svg version="1.1" id="Layer_1" xmlns="http://www.w3.org/2000/svg" xmlns:xlink="http://www.w3.org/1999/xlink" x="0px" y="0px"
	 viewBox="0 0 517 233" style="enable-background:new 0 0 517 233;" xml:space="preserve">
<style type="text/css">
	.st0{fill:#2B2B2B;}
	.st1{fill:#303030;}
	.st2{fill:none;stroke:#1D3A6B;stroke-width:0.1925;stroke-miterlimit:10;}
	.st3{font-family:'Tinos-Bold';}
	.st4{font-size:125.1484px;}
</style>
<g>
	<g>
		<g>
			<g>
				<g>
					<path class="st0" d="M67.66,169.02c-1.04,0.16-2.16,0.24-3.36,0.26c-27.61-6.94-48.28-31.7-48.8-61.52
						c-0.34-19.6,8.08-37.31,21.66-49.39v8.5c-10.12,11.34-16.16,26.36-15.87,42.75C21.78,138.2,41.35,161.98,67.66,169.02z"/>
				</g>
			</g>
			<g>
				<g>
					<path class="st0" d="M111.83,50.38h-4.68c-7.52-3.01-15.75-4.61-24.34-4.45c-7.83,0.14-15.3,1.71-22.17,4.45H48.31
						c9.05-5.13,19.49-8.13,30.63-8.33C90.89,41.84,102.13,44.89,111.83,50.38z"/>
				</g>
			</g>
			<g>
				<g>
					<path class="st0" d="M131.19,70.2c-3.74-4.83-8.18-9.09-13.15-12.64c0.71,0.04,1.38,0.1,2,0.17
						C124.28,61.38,128.03,65.57,131.19,70.2z"/>
				</g>
			</g>
		</g>
		<g>
			<g>
				<g>
					<g>
						<path class="st0" d="M83.02,177.78l2.6,4.5c-0.27,0.01-0.54,0.01-0.81,0.02c-25.72,0.37-48.55-12.5-62-32.29
							c13.27,17.22,34.2,28.19,57.61,27.86C81.29,177.86,82.15,177.83,83.02,177.78z"/>
					</g>
				</g>
				<g>
					<g>
						<path class="st0" d="M106.37,172.61h13.93c-6,3.45-12.53,6.06-19.45,7.7l2.99-5.17l0.57-0.99l0.58-1
							C105.45,172.98,105.91,172.8,106.37,172.61z"/>
					</g>
				</g>
				<g>
					<g>
						<path class="st0" d="M123.56,50.38c-11.89-9.38-26.83-15.05-43.05-15.29c0.73-0.03,1.46-0.05,2.19-0.06
							c17.33-0.25,33.35,5.51,46.07,15.35H123.56z"/>
					</g>
				</g>
				<g>
					<g>
						<path class="st0" d="M157.39,107.62c0.37,25.9-12.67,48.86-32.69,62.27v-0.61h-4.06c-2.28,0-4.25-0.25-5.9-0.75
							c21.85-12.46,36.44-36.12,36.06-63.06c-0.11-7.69-1.44-15.09-3.79-22h0.67V72.09C153.7,82.57,157.21,94.68,157.39,107.62z"/>
					</g>
				</g>
			</g>
			<g>
				<g>
					<g>
						<g>
							<g>
								<path class="st1" d="M125.46,173.38h-20.9v-1.54h19.36v-1.8h-3.29c-2.35,0-4.41-0.26-6.12-0.78
									c-0.94-0.28-1.76-0.63-2.52-1.07c-1.1-0.65-1.98-1.32-2.7-2.05l1.09-1.08c0.63,0.63,1.41,1.22,2.38,1.8
									c0.64,0.37,1.36,0.68,2.19,0.93c1.57,0.48,3.48,0.72,5.67,0.72h4.83V173.38z M80.3,173.38H59.92v-4.87h5.11
									c1.19-0.01,2.28-0.1,3.25-0.25c1.81-0.28,3.38-0.8,4.65-1.54c0.65-0.35,1.22-0.8,1.71-1.34l1.14,1.03
									c-0.61,0.67-1.32,1.23-2.1,1.65c-1.41,0.83-3.16,1.41-5.16,1.72c-1.03,0.16-2.2,0.25-3.47,0.27h-3.58v1.8H80.3V173.38z
									 M78.77,129.55h-1.54V58.18h-8.06c-7.99,0-13.85,1.69-17.41,5.02c-5.07,4.73-8.33,11.59-9.68,20.38l-0.1,0.65h-4.85V49.61
									h111.33v34.62h-4.62l-0.15-0.58c-1.89-7.5-4-12.95-6.28-16.2c-2.25-3.21-5.4-5.81-9.35-7.72c-1.18-0.56-2.91-0.98-5.15-1.24
									c-0.65-0.07-1.32-0.13-1.96-0.17c-1.4-0.1-2.93-0.15-4.55-0.15h-8.34v70.67h-1.54V56.64h9.88c1.65,0,3.22,0.05,4.65,0.15
									c0.66,0.04,1.35,0.1,2.03,0.17c2.44,0.29,4.29,0.74,5.64,1.38c4.2,2.03,7.54,4.8,9.94,8.23c2.33,3.32,4.47,8.74,6.37,16.13
									h1.88V51.15H38.66v31.54h2c1.46-8.83,4.84-15.77,10.05-20.62c3.86-3.61,10.07-5.43,18.47-5.43h9.6V129.55z"/>
							</g>
						</g>
					</g>
					<g>
						<g>
							<g>
								<g>
									<path class="st0" d="M92.66,193.18C92.65,193.18,92.65,193.18,92.66,193.18c-1.03,0-1.95-0.53-2.46-1.42l-2.32-4.02h-0.33
										l-0.01-0.57L74.98,165.4L52.1,125.77c-0.61-1.05-0.61-2.3-0.01-3.36c0.61-1.06,1.7-1.69,2.92-1.69H72.5
										c1.2,0,2.32,0.65,2.91,1.69l17.92,31.03L92,154.21l-17.92-31.03c-0.32-0.57-0.93-0.92-1.58-0.92H55.01
										c-0.66,0-1.25,0.34-1.58,0.91c-0.33,0.57-0.33,1.25,0,1.82l28.15,48.78l4.7,8.12l5.25,9.1c0.23,0.4,0.66,0.65,1.13,0.65
										c0,0,0,0,0,0c0.48,0,0.9-0.24,1.14-0.65l9.37-16.23l1.33,0.77l-9.37,16.23C94.61,192.65,93.69,193.18,92.66,193.18z"/>
								</g>
							</g>
							<g>
								<g>
									<polygon class="st0" points="88.32,187.75 87.83,187.25 87.65,187.35 81.1,176.01 82.44,175.24 89.09,186.76 89.09,186.97 
										88.32,186.97 									"/>
								</g>
							</g>
							<g>
								<g>
									<path class="st0" d="M97.67,187.35l-1.33-0.77l49.82-86.28c0.39-0.68,0.39-1.49,0-2.17c-0.39-0.68-1.09-1.08-1.88-1.08
										h-16.7c-0.77,0-1.48,0.42-1.86,1.09l-32.38,56.08L92,153.44l32.38-56.07c0.66-1.14,1.88-1.86,3.2-1.86h16.7
										c1.34,0,2.54,0.69,3.21,1.85c0.67,1.16,0.67,2.54,0,3.7l-36.98,64.04L97.67,187.35z"/>
								</g>
							</g>
						</g>
					</g>
				</g>
			</g>
		</g>
	</g>
	<g>
		<g>
			<path class="st2" d="M127.96,40.69"/>
		</g>
	</g>
</g>
<text transform="matrix(0.9216 0 0 1 163.4123 156.952)" class="st3 st4">Trodev</text>
</svg>
